HIERARCHY
ROOT chen_peiyu:Solving:Hips
{
	OFFSET 0.000000 0.000000 0.000000
	CHANNELS 6 Xposition Yposition Zposition Xrotation Yrotation Zrotation
	JOINT chen_peiyu:Solving:Spine
	{
		OFFSET 0.000000 -11.210929 2.546455
		CHANNELS 6 Xposition Yposition Zposition Xrotation Yrotation Zrotation
		JOINT chen_peiyu:Solving:Spine1
		{
			OFFSET 0.000000 -8.581483 1.513147
			CHANNELS 6 Xposition Yposition Zposition Xrotation Yrotation Zrotation
			JOINT chen_peiyu:Solving:Spine2
			{
				OFFSET 0.000000 -8.680708 0.759466
				CHANNELS 6 Xposition Yposition Zposition Xrotation Yrotation Zrotation
				JOINT chen_peiyu:Solving:Spine3
				{
					OFFSET 0.000000 -8.713865 0.000000
					CHANNELS 6 Xposition Yposition Zposition Xrotation Yrotation Zrotation
					JOINT chen_peiyu:Solving:Neck
					{
						OFFSET 0.000000 -11.203541 -1.120352
						CHANNELS 6 Xposition Yposition Zposition Xrotation Yrotation Zrotation
						JOINT chen_peiyu:Solving:Neck1
						{
							OFFSET 0.000000 -7.996979 -0.699643
							CHANNELS 6 Xposition Yposition Zposition Xrotation Yrotation Zrotation
							JOINT chen_peiyu:Solving:Head
							{
								OFFSET 0.000000 -7.905571 -1.393964
								CHANNELS 6 Xposition Yposition Zposition Xrotation Yrotation Zrotation
								JOINT chen_peiyu:Solving:HeadEnd
								{
									OFFSET 0.000000 -9.728081 0.000003
									CHANNELS 6 Xposition Yposition Zposition Xrotation Yrotation Zrotation
									End Site
									{
										OFFSET 0.000000 -9.728081 0.000002
									}
								}
							}
						}
					}
					JOINT chen_peiyu:Solving:RightShoulder
					{
						OFFSET 0.000000 -8.002529 -5.397107
						CHANNELS 6 Xposition Yposition Zposition Xrotation Yrotation Zrotation
						JOINT chen_peiyu:Solving:RightArm
						{
							OFFSET -20.031555 -0.000008 0.000000
							CHANNELS 6 Xposition Yposition Zposition Xrotation Yrotation Zrotation
							JOINT chen_peiyu:Solving:RightForeArm
							{
								OFFSET -29.298958 -0.000008 0.000000
								CHANNELS 6 Xposition Yposition Zposition Xrotation Yrotation Zrotation
								JOINT chen_peiyu:Solving:RightHand
								{
									OFFSET -23.063095 -0.000008 0.000000
									CHANNELS 6 Xposition Yposition Zposition Xrotation Yrotation Zrotation
									JOINT chen_peiyu:Solving:RightHandThumb1
									{
										OFFSET -3.309830 2.925671 -2.461148
										CHANNELS 6 Xposition Yposition Zposition Xrotation Yrotation Zrotation
										End Site
										{
											OFFSET -4.885818 0.000000 -4.930992
										}
									}
									JOINT chen_peiyu:Solving:RightHandMiddle1
									{
										OFFSET -8.826195 -0.000004 0.056578
										CHANNELS 6 Xposition Yposition Zposition Xrotation Yrotation Zrotation
										End Site
										{
											OFFSET -6.941605 -0.000004 0.000000
										}
									}
								}
							}
						}
					}
					JOINT chen_peiyu:Solving:LeftShoulder
					{
						OFFSET 0.000000 -8.002529 -5.397107
						CHANNELS 6 Xposition Yposition Zposition Xrotation Yrotation Zrotation
						JOINT chen_peiyu:Solving:LeftArm
						{
							OFFSET 20.031555 -0.000008 0.000000
							CHANNELS 6 Xposition Yposition Zposition Xrotation Yrotation Zrotation
							JOINT chen_peiyu:Solving:LeftForeArm
							{
								OFFSET 29.298958 -0.000008 0.000000
								CHANNELS 6 Xposition Yposition Zposition Xrotation Yrotation Zrotation
								JOINT chen_peiyu:Solving:LeftHand
								{
									OFFSET 23.063095 -0.000008 0.000000
									CHANNELS 6 Xposition Yposition Zposition Xrotation Yrotation Zrotation
									JOINT chen_peiyu:Solving:LeftHandThumb1
									{
										OFFSET 3.309830 2.925671 -2.461148
										CHANNELS 6 Xposition Yposition Zposition Xrotation Yrotation Zrotation
										End Site
										{
											OFFSET 4.885818 0.000000 -4.930992
										}
									}
									JOINT chen_peiyu:Solving:LeftHandMiddle1
									{
										OFFSET 8.826195 -0.000004 0.056578
										CHANNELS 6 Xposition Yposition Zposition Xrotation Yrotation Zrotation
										End Site
										{
											OFFSET 6.941605 -0.000004 0.000000
										}
									}
								}
							}
						}
					}
				}
			}
		}
	}
	JOINT chen_peiyu:Solving:RightUpLeg
	{
		OFFSET -8.842906 0.000000 0.000000
		CHANNELS 6 Xposition Yposition Zposition Xrotation Yrotation Zrotation
		JOINT chen_peiyu:Solving:RightLeg
		{
			OFFSET 0.000000 42.445980 -0.000006
			CHANNELS 6 Xposition Yposition Zposition Xrotation Yrotation Zrotation
			JOINT chen_peiyu:Solving:RightFoot
			{
				OFFSET 0.000000 37.362904 -0.000006
				CHANNELS 6 Xposition Yposition Zposition Xrotation Yrotation Zrotation
				JOINT chen_peiyu:Solving:RightForeFoot
				{
					OFFSET 0.000000 3.537643 -0.000000
					CHANNELS 6 Xposition Yposition Zposition Xrotation Yrotation Zrotation
					JOINT chen_peiyu:Solving:RightToeBase
					{
						OFFSET 0.000000 0.000000 -13.854536
						CHANNELS 6 Xposition Yposition Zposition Xrotation Yrotation Zrotation
						JOINT chen_peiyu:Solving:RightToeBaseEnd
						{
							OFFSET 0.000000 0.000000 -3.949363
							CHANNELS 6 Xposition Yposition Zposition Xrotation Yrotation Zrotation
							End Site
							{
								OFFSET 0.000000 -3.949364 0.000000
							}
						}
					}
				}
			}
		}
	}
	JOINT chen_peiyu:Solving:LeftUpLeg
	{
		OFFSET 8.842906 0.000000 0.000000
		CHANNELS 6 Xposition Yposition Zposition Xrotation Yrotation Zrotation
		JOINT chen_peiyu:Solving:LeftLeg
		{
			OFFSET 0.000000 42.445980 -0.000006
			CHANNELS 6 Xposition Yposition Zposition Xrotation Yrotation Zrotation
			JOINT chen_peiyu:Solving:LeftFoot
			{
				OFFSET 0.000000 37.362904 -0.000006
				CHANNELS 6 Xposition Yposition Zposition Xrotation Yrotation Zrotation
				JOINT chen_peiyu:Solving:LeftForeFoot
				{
					OFFSET 0.000000 3.537643 -0.000000
					CHANNELS 6 Xposition Yposition Zposition Xrotation Yrotation Zrotation
					JOINT chen_peiyu:Solving:LeftToeBase
					{
						OFFSET 0.000000 0.000000 -13.854536
						CHANNELS 6 Xposition Yposition Zposition Xrotation Yrotation Zrotation
						JOINT chen_peiyu:Solving:LeftToeBaseEnd
						{
							OFFSET 0.000000 0.000000 -4.185185
							CHANNELS 6 Xposition Yposition Zposition Xrotation Yrotation Zrotation
							End Site
							{
								OFFSET 0.000000 -4.185188 0.000000
							}
						}
					}
				}
			}
		}
	}
}
MOTION
Frames: 6
Frame Time: 0.041667
-2.203540 -111.086891 -92.151047 85.971120 -2.314420 1.107780 0.000000 -11.210937 2.546475 11.678461 0.633037 1.132610 0.000000 -8.581480 1.513151 -0.667658 -0.058314 0.126175 0.000000 -8.680718 0.759458 -7.472055 0.171595 -0.322213 0.000000 -8.713875 0.000019 -7.534823 0.101597 -0.366729 0.000001 -11.203501 -1.120368 0.492166 0.334359 1.698449 0.000000 -7.996954 -0.699640 5.109220 0.068493 -1.303594 0.000001 -7.905557 -1.393964 14.930428 0.143247 -2.105310 0.000000 -9.728058 0.000009 -0.000001 -0.000000 0.000000 0.000001 -8.002502 -5.397124 -0.000003 13.277425 5.914862 -20.031561 -0.000002 -0.000006 3.980037 -7.569920 -70.572984 -29.298964 -0.000016 0.000003 13.070933 -10.484251 2.419187 -23.063080 0.000009 0.000003 -4.367610 11.912909 20.304587 -3.309840 2.925672 -2.461146 -0.000002 -0.000005 -0.000004 -8.826224 0.000002 0.056576 -0.000003 -0.000000 0.000002 -0.000002 -8.002502 -5.397124 -0.000005 -13.333077 -15.636280 20.031546 -0.000027 -0.000010 -7.386080 3.945454 82.161794 29.298958 -0.000006 0.000006 14.575820 6.301340 -1.634807 23.063103 0.000006 0.000005 -1.689553 -6.436588 -14.741771 3.309826 2.925693 -2.461113 0.000001 0.000002 -0.000004 8.826203 -0.000001 0.056610 -0.000003 -0.000001 -0.000009 -8.842906 0.000001 0.000010 4.197431 12.213939 2.725912 -0.000006 42.445976 0.000001 4.748940 0.000000 -0.000000 -0.000007 37.362896 -0.000020 17.683025 -3.929908 18.188283 -0.000004 3.537643 -0.000013 -0.000001 -0.000000 0.000004 0.000002 0.000008 -13.854563 -16.138564 -0.000002 0.000004 0.000000 -0.000001 -3.949378 -0.000002 0.000000 0.000001 8.842907 0.000002 0.000014 5.924465 -0.848738 -3.181574 -0.000001 42.445984 -0.000022 1.118704 -0.000000 0.000000 -0.000001 37.362904 -0.000034 13.396269 -11.220884 -5.506339 0.000004 3.537651 0.000034 -0.000001 -0.000004 -0.000002 0.000004 -0.000003 -13.854532 5.590951 0.000001 0.000001 0.000001 -0.000007 -4.185198 0.000002 -0.000000 0.000001 
-2.186831 -111.088890 -92.147934 85.982164 -2.308194 1.111489 -0.000001 -11.210913 2.546447 11.675038 0.623893 1.139689 0.000001 -8.581473 1.513143 -0.663795 -0.056794 0.119246 0.000001 -8.680704 0.759464 -7.422787 0.198885 -0.331841 0.000001 -8.713873 0.000002 -7.481516 0.103382 -0.390641 0.000000 -11.203549 -1.120355 0.418045 0.319521 1.698788 -0.000002 -7.996998 -0.699649 5.109394 0.040365 -1.291154 -0.000000 -7.905572 -1.393957 14.941853 0.138825 -2.082184 -0.000000 -9.728088 0.000010 -0.000002 0.000000 0.000000 0.000001 -8.002522 -5.397108 -0.000002 13.287249 5.723307 -20.031561 -0.000002 0.000014 4.364076 -8.311147 -71.302968 -29.299006 0.000002 -0.000011 13.085345 -10.466859 2.417965 -23.063093 0.000012 0.000010 -4.237757 11.743923 20.004121 -3.309825 2.925650 -2.461141 0.000007 0.000003 -0.000004 -8.826217 -0.000013 0.056585 -0.000000 0.000004 -0.000009 -0.000001 -8.002525 -5.397100 -0.000006 -13.332692 -15.472129 20.031565 -0.000046 -0.000012 -6.827601 5.064251 82.838255 29.298948 -0.000014 -0.000005 13.737907 6.293870 -1.535244 23.063118 0.000009 0.000007 -1.575624 -6.065322 -14.591907 3.309848 2.925682 -2.461178 0.000002 -0.000002 0.000003 8.826219 0.000008 0.056557 0.000001 0.000002 0.000001 -8.842906 0.000021 0.000006 4.178393 12.217544 2.734853 -0.000005 42.445999 -0.000009 4.757298 -0.000001 0.000000 -0.000007 37.362911 -0.000022 17.680390 -3.932557 18.180430 -0.000002 3.537658 -0.000027 0.000000 -0.000000 0.000003 -0.000005 0.000019 -13.854554 -16.154021 -0.000002 -0.000002 -0.000005 -0.000001 -3.949360 0.000000 -0.000000 0.000001 8.842907 0.000022 0.000013 5.906819 -0.872164 -3.174087 0.000001 42.445972 -0.000025 1.133123 -0.000000 0.000000 -0.000001 37.362888 -0.000011 13.372369 -11.207726 -5.487081 -0.000005 3.537651 0.000001 0.000000 -0.000002 0.000000 0.000002 0.000001 -13.854534 5.594773 0.000002 0.000000 0.000002 0.000000 -4.185182 0.000000 -0.000004 -0.000000 
-2.168985 -111.091698 -92.145500 85.994581 -2.297907 1.116145 0.000000 -11.210946 2.546460 11.669768 0.621639 1.138015 0.000000 -8.581471 1.513149 -0.660079 -0.054969 0.111462 -0.000001 -8.680718 0.759477 -7.382678 0.217790 -0.335945 -0.000000 -8.713851 0.000014 -7.423863 0.106170 -0.415780 0.000000 -11.203580 -1.120315 0.357942 0.297074 1.717820 0.000002 -7.996978 -0.699651 5.114058 0.000053 -1.302999 -0.000001 -7.905603 -1.393972 14.950758 0.135132 -2.056247 -0.000000 -9.728081 0.000025 -0.000002 0.000000 0.000000 0.000002 -8.002533 -5.397074 -0.000004 13.274063 5.532895 -20.031563 -0.000004 0.000010 4.732786 -8.878738 -72.022999 -29.298979 -0.000007 -0.000000 13.074539 -10.560004 2.437137 -23.063087 0.000008 0.000015 -4.108074 11.593160 19.666751 -3.309828 2.925660 -2.461152 0.000006 0.000005 0.000003 -8.826208 -0.000010 0.056563 0.000003 -0.000000 0.000003 -0.000001 -8.002537 -5.397074 -0.000009 -13.241405 -15.248742 20.031570 0.000001 0.000005 -6.382852 5.269191 83.464174 29.298965 -0.000001 -0.000003 13.525643 6.209582 -1.490480 23.063089 0.000000 0.000023 -1.454474 -5.742506 -14.238986 3.309827 2.925683 -2.461180 0.000008 -0.000003 0.000006 8.826200 -0.000001 0.056556 0.000000 -0.000003 -0.000004 -8.842905 -0.000017 -0.000002 4.157367 12.219224 2.744671 0.000004 42.446011 -0.000013 4.762819 0.000001 0.000001 0.000004 37.362911 -0.000010 17.682028 -3.942091 18.163937 -0.000001 3.537643 -0.000014 0.000002 -0.000001 0.000000 -0.000002 -0.000011 -13.854548 -16.161571 -0.000002 0.000004 -0.000003 -0.000000 -3.949371 -0.000000 0.000000 0.000003 8.842907 -0.000005 -0.000005 5.884908 -0.900650 -3.166308 -0.000001 42.445988 -0.000014 1.151227 -0.000000 0.000000 -0.000001 37.362915 -0.000014 13.346091 -11.191179 -5.485413 -0.000000 3.537651 0.000016 -0.000002 -0.000001 -0.000002 0.000007 0.000006 -13.854526 5.594354 0.000003 -0.000002 -0.000007 0.000001 -4.185194 0.000004 -0.000001 0.000000 
-2.147721 -111.092552 -92.143257 86.000940 -2.283349 1.115870 -0.000001 -11.210919 2.546457 11.663805 0.617558 1.139190 -0.000001 -8.581491 1.513151 -0.653292 -0.053770 0.103755 0.000000 -8.680710 0.759454 -7.343237 0.234386 -0.347863 -0.000001 -8.713877 0.000005 -7.370642 0.107365 -0.432347 0.000001 -11.203499 -1.120376 0.321592 0.281704 1.700981 0.000001 -7.996968 -0.699640 5.123599 -0.044750 -1.262191 0.000000 -7.905581 -1.393960 14.944990 0.129576 -2.048299 0.000000 -9.728065 -0.000004 -0.000002 0.000000 -0.000000 0.000001 -8.002541 -5.397118 -0.000002 13.240722 5.347530 -20.031563 -0.000019 0.000018 5.095047 -9.310980 -72.734357 -29.298962 0.000006 0.000012 12.970931 -10.732283 2.456098 -23.063089 0.000001 0.000017 -3.994287 11.468551 19.350701 -3.309828 2.925675 -2.461147 -0.000003 0.000003 0.000002 -8.826200 -0.000007 0.056583 0.000001 0.000001 0.000004 -0.000001 -8.002541 -5.397118 -0.000007 -13.183839 -15.019062 20.031567 -0.000017 0.000010 -5.864334 5.933273 84.051980 29.298967 -0.000015 -0.000011 12.821320 6.248364 -1.418944 23.063097 0.000014 0.000005 -1.356837 -5.469063 -13.956373 3.309815 2.925676 -2.461128 -0.000004 0.000007 -0.000009 8.826193 0.000017 0.056591 -0.000001 -0.000000 -0.000002 -8.842909 -0.000003 0.000006 4.144084 12.221222 2.762782 -0.000003 42.445995 -0.000007 4.765196 -0.000001 0.000000 -0.000003 37.362911 -0.000000 17.677310 -3.959656 18.149421 0.000001 3.537635 -0.000003 -0.000005 0.000001 0.000004 0.000000 -0.000001 -13.854521 -16.145929 -0.000001 0.000001 -0.000004 0.000000 -3.949383 -0.000000 0.000000 -0.000001 8.842905 -0.000003 0.000011 5.872979 -0.923822 -3.150750 -0.000001 42.445972 0.000015 1.166737 0.000000 -0.000000 -0.000001 37.362896 -0.000022 13.320609 -11.187344 -5.466412 -0.000000 3.537643 0.000030 0.000005 -0.000001 -0.000002 0.000004 0.000011 -13.854533 5.599537 0.000003 0.000001 0.000002 0.000008 -4.185199 0.000001 0.000001 0.000000 
-2.123857 -111.094612 -92.141731 86.006521 -2.270916 1.108141 0.000002 -11.210926 2.546447 11.668576 0.613237 1.142028 -0.000000 -8.581468 1.513137 -0.645874 -0.053016 0.097980 -0.000000 -8.680700 0.759457 -7.322653 0.245249 -0.352748 -0.000000 -8.713861 -0.000006 -7.322264 0.108204 -0.454740 0.000000 -11.203534 -1.120332 0.308722 0.258048 1.715940 0.000002 -7.996943 -0.699636 5.139079 -0.092118 -1.273657 0.000001 -7.905558 -1.393980 14.919488 0.124713 -2.024084 0.000000 -9.728081 -0.000018 0.000000 0.000000 -0.000000 -0.000000 -8.002529 -5.397078 0.000001 13.195628 5.150647 -20.031551 -0.000008 -0.000009 5.421352 -9.523369 -73.431029 -29.298937 -0.000015 0.000005 12.903845 -10.943765 2.490468 -23.063108 -0.000002 0.000023 -3.908259 11.406608 19.057094 -3.309828 2.925676 -2.461171 -0.000001 0.000003 0.000003 -8.826214 0.000003 0.056567 0.000002 -0.000001 0.000005 -0.000001 -8.002533 -5.397078 -0.000003 -13.067685 -14.758835 20.031555 0.000007 0.000010 -5.374570 6.181952 84.609221 29.298944 -0.000014 0.000011 12.507986 6.253471 -1.384267 23.063107 0.000006 0.000017 -1.273869 -5.276425 -13.593818 3.309813 2.925675 -2.461173 0.000001 -0.000009 -0.000003 8.826195 -0.000003 0.056571 -0.000000 -0.000001 -0.000000 -8.842908 0.000011 -0.000017 4.131676 12.216838 2.789200 -0.000006 42.445969 0.000005 4.764243 0.000000 -0.000001 -0.000002 37.362904 -0.000030 17.671380 -3.967637 18.131856 -0.000002 3.537636 -0.000006 0.000002 0.000001 0.000003 -0.000001 -0.000005 -13.854518 -16.118946 -0.000002 0.000004 -0.000004 0.000000 -3.949378 0.000000 -0.000000 -0.000002 8.842907 -0.000004 -0.000010 5.860021 -0.940585 -3.125518 -0.000001 42.445988 0.000008 1.184350 -0.000000 0.000000 -0.000004 37.362911 -0.000038 13.302663 -11.188734 -5.462518 -0.000005 3.537651 0.000012 0.000001 -0.000002 -0.000001 0.000006 0.000005 -13.854525 5.598625 0.000000 -0.000001 0.000008 0.000001 -4.185193 0.000002 -0.000002 -0.000000 
-2.101255 -111.096413 -92.139282 86.006090 -2.258070 1.103549 0.000000 -11.210952 2.546457 11.680930 0.612059 1.146511 0.000001 -8.581479 1.513161 -0.633004 -0.052387 0.094875 -0.000001 -8.680705 0.759471 -7.303625 0.249807 -0.364239 -0.000001 -8.713873 0.000005 -7.290119 0.109121 -0.474895 0.000001 -11.203547 -1.120352 0.344496 0.236322 1.698576 -0.000001 -7.996999 -0.699651 5.107084 -0.139551 -1.240205 -0.000001 -7.905550 -1.393998 14.888761 0.119026 -2.021004 0.000000 -9.728043 -0.000050 -0.000002 0.000000 0.000000 0.000001 -8.002541 -5.397101 -0.000001 13.136698 4.950165 -20.031551 0.000008 -0.000008 5.814467 -9.809767 -74.083695 -29.298962 -0.000008 0.000006 12.586148 -11.238641 2.491678 -23.063103 -0.000004 0.000031 -3.839680 11.380553 18.784695 -3.309854 2.925672 -2.461154 -0.000000 0.000003 -0.000002 -8.826223 0.000005 0.056583 0.000001 -0.000000 -0.000007 0.000001 -8.002529 -5.397099 -0.000008 -12.942073 -14.483725 20.031553 -0.000009 0.000009 -4.934701 6.188199 85.143110 29.298977 -0.000009 0.000007 12.487602 6.209006 -1.372154 23.063078 -0.000007 0.000001 -1.213679 -5.209415 -13.134180 3.309817 2.925665 -2.461153 -0.000001 0.000007 -0.000006 8.826183 -0.000002 0.056579 0.000001 -0.000001 -0.000005 -8.842903 -0.000016 0.000009 4.124880 12.213343 2.810503 -0.000001 42.445992 -0.000003 4.765989 -0.000001 0.000000 -0.000000 37.362907 -0.000007 17.663241 -3.975819 18.116899 0.000005 3.537635 -0.000014 0.000000 -0.000000 0.000004 -0.000001 0.000015 -13.854541 -16.110386 -0.000002 0.000002 -0.000003 0.000015 -3.949368 -0.000001 -0.000000 -0.000002 8.842906 -0.000013 -0.000015 5.851658 -0.966578 -3.105924 0.000002 42.445972 -0.000010 1.203032 0.000000 0.000000 -0.000001 37.362892 -0.000018 13.284743 -11.174158 -5.448466 0.000004 3.537643 0.000008 0.000000 -0.000002 -0.000001 -0.000001 -0.000008 -13.854535 5.580597 0.000003 -0.000000 -0.000002 -0.000008 -4.185196 -0.000001 -0.000002 0.000001 
